<?xml version="1.0" standalone="no"?>
<!DOCTYPE svg PUBLIC "-//W3C//DTD SVG 20010904//EN"
 "http://www.w3.org/TR/2001/REC-SVG-20010904/DTD/svg10.dtd">
<svg version="1.0" xmlns="http://www.w3.org/2000/svg"
 width="478.000000pt" height="478.000000pt" viewBox="0 0 478.000000 478.000000"
 preserveAspectRatio="xMidYMid meet">
<metadata>
Created by potrace 1.14, written by Peter Selinger 2001-2017
</metadata>
<g transform="translate(0.000000,478.000000) scale(0.100000,-0.100000)"
fill="#000000" stroke="none">
<path d="M2180 4773 c-37 -3 -161 -20 -220 -29 -56 -9 -289 -71 -365 -97 -431
-148 -849 -464 -1127 -852 -145 -202 -269 -454 -339 -691 -26 -88 -59 -227
-65 -279 -3 -22 -7 -47 -9 -55 -28 -92 -27 -630 0 -771 3 -13 8 -40 11 -59 64
-367 234 -747 468 -1045 199 -254 520 -517 781 -639 22 -11 72 -34 110 -53
174 -84 487 -169 715 -192 197 -21 594 0 739 38 20 6 47 12 61 15 100 19 283
79 380 123 85 39 230 112 280 141 60 35 244 163 260 181 3 3 27 24 55 46 264
212 536 587 669 925 60 154 124 392 141 520 3 25 10 77 15 115 8 64 6 532 -3
580 -2 11 -7 45 -11 75 -7 46 -17 102 -41 210 -35 164 -149 454 -243 615 -42
73 -140 216 -197 290 -69 89 -251 277 -334 345 -218 181 -509 346 -746 423
-153 50 -265 77 -430 103 -91 15 -454 26 -555 17z"/>
</g>
</svg>
